<?xml version="1.0" encoding="UTF-8" standalone="no" ?>
<!DOCTYPE svg PUBLIC "-//W3C//DTD SVG 1.1//EN" "http://www.w3.org/Graphics/SVG/1.1/DTD/svg11.dtd">
<svg xmlns="http://www.w3.org/2000/svg" xmlns:xlink="http://www.w3.org/1999/xlink" version="1.1" width="1280" height="1024" viewBox="0 0 1280 1024" xml:space="preserve">
<desc>Created with Fabric.js 5.3.0</desc>
<defs>
</defs>
<g transform="matrix(1 0 0 1 640 512)" id="background-logo"  >
<rect style="stroke: none; stroke-width: 0; stroke-dasharray: none; stroke-linecap: butt; stroke-dashoffset: 0; stroke-linejoin: miter; stroke-miterlimit: 4; fill: rgb(255,255,255); fill-opacity: 0; fill-rule: nonzero; opacity: 1;"  paint-order="stroke"  x="-640" y="-512" rx="0" ry="0" width="1280" height="1024" />
</g>
<g transform="matrix(1.9211538461538462 0 0 1.9211538461538462 640 404.77397933767094)" id="logo-logo"  >
<g style=""  paint-order="stroke"   >
		<g transform="matrix(0.400838903947064 0 0 0.400838903947064 0 0)"  >
<path style="stroke: none; stroke-width: 1; stroke-dasharray: none; stroke-linecap: butt; stroke-dashoffset: 0; stroke-linejoin: miter; stroke-miterlimit: 4; fill: #4ecddb; fill-rule: nonzero; opacity: 1;"  paint-order="stroke"  transform=" translate(-290.0764173572393, -247.3344393971575)" d="M 290.54 390.54 C 290.66 391.03000000000003 290.39000000000004 391.52000000000004 289.93 391.69 C 281.83 395.3 272.65 398.56 263.01 401.15 C 253.88 403.60999999999996 244.32 405.46999999999997 234.85999999999999 406.48999999999995 C 225.63 407.47999999999996 216.48999999999998 407.66999999999996 207.73 407.38999999999993 C 198.98 407.10999999999996 190.62 406.35999999999996 182.92999999999998 405.48999999999995 C 182.87999999999997 405.48999999999995 182.83999999999997 405.47999999999996 182.79 405.46999999999997 L 182.76999999999998 405.46 L 182.76999999999998 405.46 L 182.74999999999997 405.45 L 182.74999999999997 405.45 L 182.72999999999996 405.44 L 182.72999999999996 405.44 L 182.70999999999995 405.43 L 182.69999999999996 405.43 L 182.67999999999995 405.42 L 182.66999999999996 405.42 L 182.64999999999995 405.41 C 182.55999999999995 405.37 182.47999999999996 405.33000000000004 182.40999999999994 405.27000000000004 L 182.39999999999995 405.26000000000005 L 182.38999999999996 405.25000000000006 L 182.34999999999997 405.2200000000001 L 182.33999999999997 405.2100000000001 L 182.32999999999998 405.2000000000001 L 182.32 405.1900000000001 L 182.31 405.1800000000001 L 182.3 405.17000000000013 L 182.29000000000002 405.16000000000014 L 182.28000000000003 405.15000000000015 L 182.27000000000004 405.14000000000016 L 182.26000000000005 405.13000000000017 L 182.24000000000004 405.1100000000002 L 182.23000000000005 405.1000000000002 L 182.22000000000006 405.0900000000002 L 182.19000000000005 405.0500000000002 L 182.18000000000006 405.0400000000002 L 182.17000000000007 405.0300000000002 L 182.16000000000008 405.0200000000002 L 182.16000000000008 405.0100000000002 L 182.1500000000001 405.0000000000002 L 182.1500000000001 404.99000000000024 L 182.1400000000001 404.98000000000025 L 182.1400000000001 404.97000000000025 L 182.1300000000001 404.9500000000003 L 182.12000000000012 404.9400000000003 L 182.12000000000012 404.9300000000003 L 182.11000000000013 404.9200000000003 L 182.11000000000013 404.9100000000003 L 182.10000000000014 404.8900000000003 L 182.10000000000014 404.88000000000034 L 182.09000000000015 404.86000000000035 L 182.09000000000015 404.85000000000036 L 182.08000000000015 404.8300000000004 C 182.05000000000015 404.7600000000004 182.03000000000014 404.6900000000004 182.02000000000015 404.6200000000004 L 168.17000000000016 332.5600000000004 C 168.04000000000016 331.8600000000004 167.76000000000016 331.2200000000004 167.37000000000015 330.6700000000004 C 166.97000000000014 330.1000000000004 166.45000000000016 329.6200000000004 165.85000000000014 329.27000000000044 L 165.80000000000013 329.24000000000046 C 163.66000000000014 327.9800000000005 161.52000000000012 326.7100000000005 159.4400000000001 325.39000000000044 C 157.3300000000001 324.05000000000047 155.24000000000012 322.62000000000046 153.18000000000012 321.02000000000044 C 151.1600000000001 319.45000000000044 149.1300000000001 317.69000000000045 147.1000000000001 315.63000000000045 C 145.0700000000001 313.57000000000045 143.03000000000011 311.2300000000005 141.0000000000001 308.51000000000045 C 138.93000000000012 305.74000000000046 136.84000000000012 302.56000000000046 134.80000000000013 299.08000000000044 C 132.74000000000012 295.56000000000046 130.73000000000013 291.75000000000045 128.82000000000014 287.74000000000046 C 126.90000000000013 283.70000000000044 125.07000000000014 279.43000000000046 123.37000000000013 275.0300000000005 C 121.70000000000013 270.6900000000005 120.17000000000013 266.2500000000005 118.83000000000013 261.81000000000046 C 117.48000000000013 257.34000000000043 116.31000000000013 252.86000000000047 115.34000000000013 248.39000000000047 C 114.36000000000013 243.91000000000048 113.56000000000013 239.42000000000047 112.95000000000013 234.93000000000046 C 112.33000000000013 230.39000000000047 111.90000000000013 225.85000000000045 111.65000000000013 221.34000000000046 C 111.40000000000013 216.81000000000046 111.33000000000014 212.29000000000045 111.45000000000013 207.79000000000045 C 111.57000000000014 203.08000000000044 111.90000000000013 198.41000000000045 112.44000000000013 193.86000000000044 C 112.96000000000012 189.46000000000043 113.69000000000013 185.14000000000044 114.65000000000012 180.96000000000043 C 115.54000000000012 177.03000000000043 116.63000000000012 173.24000000000044 117.93000000000012 169.64000000000044 C 119.18000000000012 166.17000000000044 120.63000000000012 162.87000000000043 122.29000000000012 159.80000000000044 C 123.92000000000012 156.79000000000045 125.75000000000011 153.99000000000044 127.75000000000011 151.39000000000044 C 129.84000000000012 148.69000000000045 132.1000000000001 146.22000000000045 134.5100000000001 143.97000000000045 C 137.0400000000001 141.61000000000044 139.7300000000001 139.49000000000046 142.53000000000011 137.60000000000045 C 145.43000000000012 135.65000000000046 148.46000000000012 133.95000000000044 151.56000000000012 132.50000000000045 C 154.49000000000012 131.13000000000045 157.4800000000001 129.98000000000044 160.5400000000001 129.04000000000045 C 163.6000000000001 128.10000000000045 166.7200000000001 127.37000000000045 169.9200000000001 126.85000000000045 C 173.1200000000001 126.32000000000045 176.4000000000001 126.00000000000045 179.7600000000001 125.87000000000045 L 179.7600000000001 125.87000000000045 C 183.12000000000012 125.74000000000045 186.53000000000011 125.80000000000045 190.0100000000001 126.05000000000045 C 193.6900000000001 126.31000000000046 197.4500000000001 126.78000000000046 201.2500000000001 127.47000000000045 C 204.9200000000001 128.14000000000044 208.59000000000012 129.00000000000045 212.2200000000001 130.08000000000047 C 215.71000000000012 131.12000000000046 219.1700000000001 132.36000000000047 222.5800000000001 133.81000000000046 C 225.8700000000001 135.21000000000046 229.1000000000001 136.81000000000046 232.2400000000001 138.60000000000045 C 235.4900000000001 140.47000000000045 238.66000000000008 142.56000000000046 241.7100000000001 144.86000000000044 C 244.8000000000001 147.18000000000043 247.7600000000001 149.70000000000044 250.5700000000001 152.39000000000044 C 253.43000000000012 155.13000000000045 256.1500000000001 158.04000000000045 258.7100000000001 161.12000000000043 C 261.2700000000001 164.19000000000042 263.6700000000001 167.42000000000044 265.8700000000001 170.77000000000044 C 268.0700000000001 174.11000000000044 270.09000000000015 177.57000000000045 271.9300000000001 181.14000000000044 C 273.78000000000014 184.72000000000045 275.47000000000014 188.42000000000044 277.0100000000001 192.22000000000045 C 278.5500000000001 196.03000000000046 279.9400000000001 199.95000000000044 281.1800000000001 203.98000000000044 C 282.4300000000001 208.01000000000045 283.54000000000013 212.13000000000045 284.5100000000001 216.32000000000045 C 285.5700000000001 220.86000000000044 286.4700000000001 225.48000000000044 287.1800000000001 230.12000000000046 C 287.85000000000014 234.50000000000045 288.34000000000015 238.91000000000045 288.6200000000001 243.30000000000047 C 288.8800000000001 247.40000000000046 288.9600000000001 251.49000000000046 288.8200000000001 255.53000000000046 C 288.6800000000001 259.40000000000043 288.3500000000001 263.19000000000045 287.8000000000001 266.87000000000046 C 285.3800000000001 282.89000000000044 278.6300000000001 297.4700000000005 271.8700000000001 312.05000000000047 L 271.8700000000001 312.05000000000047 C 271.4000000000001 313.06000000000046 271.3000000000001 314.17000000000047 271.5600000000001 315.25000000000045 L 290.5100000000001 390.52000000000044 z M 27.610000000000014 342.52000000000004 C 51.23000000000002 348.42 50.530000000000015 346.96000000000004 27.610000000000014 352.69000000000005 C 21.710000000000015 376.31000000000006 23.170000000000012 375.61000000000007 17.440000000000012 352.69000000000005 C -6.179999999999989 346.7900000000001 -5.47999999999999 348.25000000000006 17.440000000000012 342.52000000000004 C 23.34000000000001 318.90000000000003 21.880000000000013 319.6 27.610000000000014 342.52000000000004 z M 171.72000000000003 402.80000000000007 C 171.82000000000002 403.33000000000004 171.47000000000003 403.8400000000001 170.94000000000003 403.95000000000005 C 170.82000000000002 403.97 170.70000000000002 403.97 170.58 403.95000000000005 C 163.48000000000002 402.97 157.16000000000003 401.85 151.66000000000003 400.15000000000003 C 146.08 398.42 141.33 396.09000000000003 137.44000000000003 392.70000000000005 C 128.82000000000002 385.1700000000001 124.63000000000002 372.59000000000003 118.32000000000002 353.61 L 117.54000000000002 351.28000000000003 C 111.28000000000002 332.47 103.10000000000002 307.88000000000005 96.08000000000001 283.79 C 92.44000000000001 271.28000000000003 89.11000000000001 258.91 86.51000000000002 246.93 C 83.91000000000003 234.91 82.03000000000002 223.24 81.30000000000003 212.14000000000001 C 80.02000000000002 192.71 81.87000000000002 175.02 86.18000000000002 159.26000000000002 C 90.81000000000002 142.34000000000003 98.29000000000002 127.66000000000003 107.80000000000003 115.44000000000003 C 108.01000000000002 115.17000000000003 108.34000000000003 115.03000000000003 108.67000000000003 115.07000000000002 C 116.41000000000003 115.69000000000003 124.16000000000003 115.85000000000002 131.88000000000002 115.45000000000002 C 139.63000000000002 115.06000000000002 147.36 114.12000000000002 155.04000000000002 112.55000000000001 C 167.07000000000002 110.11000000000001 178.97000000000003 106.15 190.61 100.41000000000001 C 202.23000000000002 94.67000000000002 213.59 87.15 224.56 77.56 C 224.81 77.32000000000001 225.17000000000002 77.21000000000001 225.53 77.32000000000001 C 239.9 81.60000000000001 253.93 88.92 266.84000000000003 99.51 C 278.92 109.41000000000001 290.02000000000004 122.15 299.52000000000004 137.93 L 299.76000000000005 138.34 C 299.76000000000005 138.34 299.89000000000004 138.57 299.96000000000004 138.68 L 299.96000000000004 138.68 L 299.96000000000004 138.68 C 300.24 139.09 300.18000000000006 139.65 299.8 139.98000000000002 C 298.90000000000003 140.76000000000002 298.06 141.61 297.28000000000003 142.51000000000002 C 296.51000000000005 143.41000000000003 295.8 144.36 295.15000000000003 145.38000000000002 C 293.44000000000005 148.07000000000002 292.25000000000006 151.10000000000002 291.69000000000005 154.29000000000002 C 291.15000000000003 157.37000000000003 291.19000000000005 160.60000000000002 291.9100000000001 163.82000000000002 L 306.1600000000001 227.85000000000002 C 306.1700000000001 227.90000000000003 306.19000000000005 227.94000000000003 306.19000000000005 227.99 C 306.20000000000005 228.08 306.22 228.16 306.2300000000001 228.21 C 306.24000000000007 228.27 306.26000000000005 228.34 306.2800000000001 228.42000000000002 L 306.2900000000001 228.47000000000003 C 307.0300000000001 231.67000000000002 308.37000000000006 234.59000000000003 310.1600000000001 237.12000000000003 C 312.0200000000001 239.75000000000003 314.37000000000006 241.96000000000004 317.0400000000001 243.66000000000003 C 319.2600000000001 245.07000000000002 321.7000000000001 246.13000000000002 324.2700000000001 246.77000000000004 C 326.7700000000001 247.39000000000004 329.4000000000001 247.63000000000005 332.0700000000001 247.42000000000004 C 332.6800000000001 247.36000000000004 333.0700000000001 247.80000000000004 333.1600000000001 248.37000000000003 C 334.5100000000001 257.13000000000005 335.5700000000001 265.66 336.3200000000001 273.94000000000005 C 337.0800000000001 282.2300000000001 337.5200000000001 290.25000000000006 337.6400000000001 297.9800000000001 C 337.8200000000001 309.99000000000007 337.2000000000001 321.30000000000007 335.6400000000001 331.4800000000001 C 334.1700000000001 341.0900000000001 331.8500000000001 349.7200000000001 328.5600000000001 357.0300000000001 C 325.6200000000001 363.56000000000006 321.91000000000014 369.0300000000001 317.3100000000001 373.7900000000001 C 312.73000000000013 378.5200000000001 307.28000000000014 382.5400000000001 300.85000000000014 386.19000000000005 C 300.76000000000016 386.25000000000006 300.66000000000014 386.2900000000001 300.5500000000001 386.32000000000005 C 300.03000000000014 386.45000000000005 299.4900000000001 386.13000000000005 299.3600000000001 385.61000000000007 L 281.5600000000001 314.9200000000001 C 281.5100000000001 314.7100000000001 281.5200000000001 314.4800000000001 281.6200000000001 314.2700000000001 C 285.0000000000001 306.9600000000001 288.35000000000014 299.6200000000001 291.16000000000014 292.0300000000001 C 293.96000000000015 284.4700000000001 296.23000000000013 276.6500000000001 297.4900000000001 268.3300000000001 C 298.10000000000014 264.2900000000001 298.46000000000015 260.1700000000001 298.6100000000001 256.0100000000001 C 298.7600000000001 251.6300000000001 298.6800000000001 247.1700000000001 298.3900000000001 242.6900000000001 C 298.0900000000001 238.03000000000011 297.5700000000001 233.34000000000012 296.8600000000001 228.68000000000012 C 296.1100000000001 223.76000000000013 295.16000000000014 218.8800000000001 294.0500000000001 214.1000000000001 C 293.02000000000015 209.6900000000001 291.85000000000014 205.3500000000001 290.53000000000014 201.09000000000012 L 290.53000000000014 201.09000000000012 C 289.21000000000015 196.84000000000012 287.73000000000013 192.67000000000013 286.08000000000015 188.59000000000012 C 284.4300000000002 184.5100000000001 282.6100000000001 180.53000000000011 280.60000000000014 176.6600000000001 C 278.59000000000015 172.78000000000011 276.40000000000015 169.03000000000011 274.01000000000016 165.4100000000001 C 271.58000000000015 161.7300000000001 268.96000000000015 158.1900000000001 266.16000000000014 154.8200000000001 C 263.38000000000017 151.4700000000001 260.41000000000014 148.2900000000001 257.29000000000013 145.31000000000012 C 254.17000000000013 142.33000000000013 250.90000000000015 139.55000000000013 247.51000000000013 136.99000000000012 C 244.17000000000013 134.48000000000013 240.69000000000014 132.17000000000013 237.08000000000013 130.11000000000013 C 233.62000000000012 128.13000000000014 230.06000000000012 126.37000000000013 226.4400000000001 124.83000000000013 C 222.6700000000001 123.23000000000013 218.8300000000001 121.86000000000013 214.9500000000001 120.71000000000012 C 210.9400000000001 119.52000000000012 206.9200000000001 118.57000000000012 202.9400000000001 117.84000000000012 C 198.8200000000001 117.09000000000012 194.7200000000001 116.58000000000011 190.68000000000012 116.30000000000011 C 186.8200000000001 116.03000000000011 183.04000000000013 115.96000000000011 179.3200000000001 116.11000000000011 C 175.6000000000001 116.26000000000012 171.9400000000001 116.63000000000011 168.3300000000001 117.22000000000011 C 164.7100000000001 117.8200000000001 161.1600000000001 118.65000000000012 157.6700000000001 119.72000000000011 C 154.1800000000001 120.7900000000001 150.7600000000001 122.11000000000011 147.4100000000001 123.6800000000001 C 143.8500000000001 125.35000000000011 140.3600000000001 127.30000000000011 137.0200000000001 129.5500000000001 C 133.8100000000001 131.7000000000001 130.7300000000001 134.1300000000001 127.84000000000009 136.8400000000001 C 125.04000000000009 139.4500000000001 122.41000000000008 142.32000000000008 119.9900000000001 145.44000000000008 C 117.6700000000001 148.44000000000008 115.54000000000009 151.69000000000008 113.6600000000001 155.19000000000008 C 111.8000000000001 158.64000000000007 110.1700000000001 162.32000000000008 108.7700000000001 166.19000000000008 C 107.3100000000001 170.22000000000008 106.09000000000009 174.4600000000001 105.09000000000009 178.8300000000001 C 104.08000000000008 183.2900000000001 103.30000000000008 187.9100000000001 102.73000000000009 192.6500000000001 C 102.14000000000009 197.5800000000001 101.79000000000009 202.5800000000001 101.6600000000001 207.5900000000001 C 101.5300000000001 212.3400000000001 101.6000000000001 217.13000000000008 101.87000000000009 221.9300000000001 C 102.1300000000001 226.7000000000001 102.59000000000009 231.4900000000001 103.2400000000001 236.2600000000001 C 103.8900000000001 241.0400000000001 104.7400000000001 245.8200000000001 105.7800000000001 250.59000000000012 C 106.8100000000001 255.31000000000012 108.0300000000001 260.0100000000001 109.4300000000001 264.67000000000013 C 110.8400000000001 269.35000000000014 112.44000000000011 273.9900000000001 114.19000000000011 278.5100000000001 C 115.97000000000011 283.1200000000001 117.91000000000011 287.6300000000001 119.96000000000011 291.9500000000001 C 122.0300000000001 296.3100000000001 124.21000000000011 300.4400000000001 126.4300000000001 304.2300000000001 C 128.62000000000012 307.9600000000001 130.87000000000012 311.3900000000001 133.1300000000001 314.4200000000001 C 135.4500000000001 317.5300000000001 137.7900000000001 320.2100000000001 140.1300000000001 322.56000000000006 C 142.4700000000001 324.9200000000001 144.8300000000001 326.9700000000001 147.1900000000001 328.80000000000007 C 149.1100000000001 330.2900000000001 151.03000000000011 331.63000000000005 152.93000000000012 332.88000000000005 C 154.84000000000012 334.13000000000005 156.70000000000013 335.27000000000004 158.54000000000013 336.36000000000007 C 158.79000000000013 336.49000000000007 158.99000000000012 336.74000000000007 159.04000000000013 337.0400000000001 L 171.68000000000012 402.7900000000001 z M 73.13000000000002 214.92000000000007 L 73.16000000000003 214.92000000000007 C 73.70000000000003 214.87000000000006 74.17000000000003 215.27000000000007 74.22000000000003 215.81000000000006 C 75.14000000000003 226.31000000000006 77.03000000000003 237.29000000000005 79.55000000000003 248.57000000000005 C 82.07000000000002 259.87000000000006 85.21000000000002 271.50000000000006 88.63000000000002 283.24000000000007 C 89.09000000000002 284.82000000000005 89.60000000000002 286.5400000000001 90.14000000000003 288.38000000000005 C 90.56000000000003 289.7900000000001 91.08000000000003 291.52000000000004 91.68000000000004 293.52000000000004 C 91.84000000000003 294.04 91.54000000000003 294.59000000000003 91.02000000000004 294.74000000000007 L 90.99000000000004 294.75000000000006 C 87.42000000000004 295.99000000000007 83.97000000000004 297.09000000000003 80.86000000000004 297.77000000000004 C 77.65000000000005 298.47 74.78000000000004 298.74000000000007 72.48000000000005 298.26000000000005 C 69.46000000000005 297.64000000000004 67.48000000000005 295.82000000000005 65.94000000000004 292.57000000000005 C 64.50000000000004 289.53000000000003 63.45000000000004 285.20000000000005 62.24000000000004 279.34000000000003 C 61.110000000000035 273.86 59.85000000000004 267.11 58.650000000000034 260.32000000000005 C 57.28000000000004 252.53000000000006 55.970000000000034 244.63000000000005 55.03000000000004 238.50000000000006 C 54.140000000000036 232.71000000000006 53.570000000000036 228.47000000000006 53.73000000000004 225.29000000000005 C 53.90000000000004 221.87000000000006 54.90000000000004 219.63000000000005 57.17000000000004 218.07000000000005 C 58.860000000000035 216.91000000000005 61.250000000000036 216.18000000000006 64.05000000000004 215.71000000000004 C 66.74000000000004 215.26000000000005 69.85000000000004 215.05000000000004 73.11000000000004 214.92000000000004 z M 312.64 144.12000000000006 L 316.11 143.35000000000005 C 318.04 142.92000000000004 319.98 142.90000000000006 321.83000000000004 143.23000000000005 C 323.76000000000005 143.57000000000005 325.58000000000004 144.30000000000004 327.21000000000004 145.33000000000004 C 328.84000000000003 146.36000000000004 330.26000000000005 147.71000000000004 331.39000000000004 149.30000000000004 C 332.47 150.83000000000004 333.27000000000004 152.58000000000004 333.70000000000005 154.51000000000005 L 348.06000000000006 219.02000000000004 C 348.49000000000007 220.95000000000005 348.51000000000005 222.89000000000004 348.18000000000006 224.74000000000004 C 347.8400000000001 226.67000000000004 347.11000000000007 228.49000000000004 346.08000000000004 230.12000000000003 C 345.05000000000007 231.75000000000003 343.70000000000005 233.17000000000004 342.11 234.30000000000004 C 340.58000000000004 235.38000000000005 338.83000000000004 236.18000000000004 336.90000000000003 236.61000000000004 L 333.34000000000003 237.40000000000003 C 333.25000000000006 237.42000000000004 333.16 237.44000000000003 333.07000000000005 237.47000000000003 C 331.20000000000005 237.84000000000003 329.32000000000005 237.82000000000002 327.53000000000003 237.48000000000002 C 325.68 237.12 323.91 236.41000000000003 322.34000000000003 235.41000000000003 C 320.71000000000004 234.38000000000002 319.29 233.03000000000003 318.16 231.44000000000003 C 317.08000000000004 229.92000000000002 316.28000000000003 228.16000000000003 315.85 226.24000000000004 L 315.82000000000005 226.09000000000003 C 310.59000000000003 205.00000000000003 306.22 183.00000000000003 301.49000000000007 161.72000000000003 C 301.06000000000006 159.79000000000002 301.0400000000001 157.85000000000002 301.37000000000006 156.00000000000003 C 301.71000000000004 154.07000000000002 302.44000000000005 152.25000000000003 303.4700000000001 150.62000000000003 C 304.50000000000006 148.99000000000004 305.8500000000001 147.57000000000002 307.4400000000001 146.44000000000003 C 308.9700000000001 145.36 310.7200000000001 144.56000000000003 312.6500000000001 144.13000000000002 z M 146.44 55.850000000000065 C 145.35 52.27000000000007 144.27 48.70000000000007 142.84 44.170000000000066 C 142.66 43.600000000000065 142.73 43.04000000000006 143.05 42.54000000000006 C 143.37 42.04000000000006 143.84 41.73000000000006 144.43 41.640000000000065 C 148.48000000000002 41.060000000000066 152.22 39.51000000000006 155.41 37.240000000000066 C 155.93 36.87000000000007 156.53 36.780000000000065 157.14 36.97000000000006 C 157.75 37.16000000000006 158.19 37.59000000000006 158.39999999999998 38.19000000000006 C 159.87999999999997 42.42000000000006 161.17 46.15000000000006 162.45999999999998 49.87000000000006 C 163.95 54.17000000000006 165.45 58.47000000000006 167.71999999999997 64.96000000000006 C 167.73999999999998 65.02000000000007 167.75999999999996 65.08000000000007 167.77999999999997 65.15000000000006 C 167.87999999999997 65.68000000000006 167.52999999999997 66.19000000000007 166.99999999999997 66.30000000000007 C 165.64999999999998 66.56000000000007 164.28999999999996 66.87000000000006 162.93999999999997 67.21000000000006 C 161.58999999999997 67.55000000000007 160.25999999999996 67.93000000000006 158.93999999999997 68.35000000000007 C 157.80999999999997 68.71000000000006 156.67999999999998 69.09000000000006 155.54999999999998 69.51000000000006 C 154.42 69.93000000000006 153.30999999999997 70.37000000000006 152.21999999999997 70.83000000000006 L 152.12999999999997 70.86000000000006 C 151.61999999999998 71.02000000000005 151.06999999999996 70.74000000000005 150.89999999999998 70.22000000000006 C 149.01999999999998 64.33000000000006 147.73 60.09000000000005 146.43999999999997 55.85000000000006 z M 211.18 75.91000000000007 C 201.94 83.12000000000006 192.44 88.86000000000007 182.78 93.30000000000007 C 173.04 97.77000000000007 163.14 100.93000000000006 153.15 102.96000000000006 C 147.41 104.13000000000007 141.65 104.92000000000006 135.89000000000001 105.38000000000007 C 130.15 105.84000000000006 124.37000000000002 105.97000000000007 118.57000000000002 105.80000000000007 C 118.31000000000002 105.80000000000007 118.05000000000003 105.71000000000006 117.86000000000003 105.51000000000006 C 117.48000000000003 105.13000000000007 117.49000000000002 104.51000000000006 117.87000000000003 104.13000000000007 C 130.27000000000004 91.95000000000007 145.03000000000003 83.11000000000007 160.92000000000002 77.97000000000007 C 176.82000000000002 72.82000000000006 193.86 71.38000000000007 210.79000000000002 73.98000000000008 C 212.00000000000003 74.16000000000008 212.08 75.21000000000008 211.19000000000003 75.90000000000008 z M 356.44 414.7000000000001 C 359.36 413.8200000000001 362.7 413.7300000000001 366.01 414.5600000000001 C 370.96999999999997 415.8000000000001 375.78 419.0600000000001 381.08 422.6500000000001 C 386.84999999999997 426.5600000000001 393.21999999999997 430.8800000000001 400.9 433.2900000000001 C 408.34 435.62000000000006 417.09999999999997 436.18000000000006 425.34999999999997 436.7100000000001 C 433.40999999999997 437.2300000000001 440.97999999999996 437.7100000000001 446.53999999999996 439.7800000000001 C 450.54999999999995 441.2700000000001 453.49999999999994 443.5800000000001 455.16999999999996 446.2800000000001 C 456.00999999999993 447.6400000000001 456.53 449.11000000000007 456.68999999999994 450.61000000000007 C 456.84999999999997 452.12000000000006 456.65999999999997 453.6700000000001 456.0899999999999 455.20000000000005 C 455.0399999999999 458.02000000000004 452.69999999999993 460.79 448.88999999999993 463.14000000000004 C 442.74999999999994 466.93000000000006 432.69999999999993 469.70000000000005 421.41999999999996 470.45000000000005 C 411.48999999999995 471.11000000000007 400.58 470.20000000000005 390.52 467.05000000000007 C 380.4 463.88000000000005 371.14 458.44000000000005 363.82 452.3400000000001 C 355.55 445.4600000000001 349.71 437.7100000000001 347.81 431.3900000000001 C 346.94 428.4800000000001 346.88 425.8600000000001 347.45 423.5900000000001 C 348 421.3800000000001 349.14 419.5000000000001 350.68 418.0000000000001 L 350.74 417.9400000000001 C 352.29 416.4500000000001 354.25 415.3600000000001 356.43 414.7000000000001 z M 375.78 370.6500000000001 C 378.71999999999997 369.93000000000006 381.96 370.0300000000001 385.05999999999995 371.1400000000001 C 389.75999999999993 372.8100000000001 394.04999999999995 376.7300000000001 398.7099999999999 380.9900000000001 C 404.2199999999999 386.0200000000001 410.25999999999993 391.54000000000013 417.9099999999999 394.1100000000001 C 425.63999999999993 396.71000000000015 435.19999999999993 396.3800000000001 444.0499999999999 396.0700000000001 C 451.3499999999999 395.8200000000001 458.1899999999999 395.5800000000001 463.3399999999999 397.0000000000001 C 467.4099999999999 398.1200000000001 470.3999999999999 400.2600000000001 472.1099999999999 402.9000000000001 C 472.8999999999999 404.1300000000001 473.4199999999999 405.4700000000001 473.6399999999999 406.8800000000001 C 473.8599999999999 408.2800000000001 473.77999999999986 409.7400000000001 473.3799999999999 411.1900000000001 C 472.4999999999999 414.3900000000001 470.08999999999986 417.60000000000014 465.9299999999999 420.2800000000001 C 459.8199999999999 424.2200000000001 449.8499999999999 427.06000000000006 438.6399999999999 427.86000000000007 C 428.65999999999985 428.57000000000005 417.66999999999985 427.68000000000006 407.5499999999999 424.50000000000006 C 397.2899999999999 421.2900000000001 387.9199999999999 415.74000000000007 380.5999999999999 409.49000000000007 C 372.5399999999999 402.61000000000007 366.9399999999999 394.83000000000004 365.3399999999999 388.31000000000006 C 364.5299999999999 385.0300000000001 364.7199999999999 382.06000000000006 365.62999999999994 379.51000000000005 C 366.43999999999994 377.22 367.8299999999999 375.29 369.59999999999997 373.78000000000003 C 371.34999999999997 372.28000000000003 373.47999999999996 371.21000000000004 375.78 370.65000000000003 z M 394.2 324.4700000000001 C 394.09 322.9500000000001 393.96999999999997 321.4500000000001 393.84999999999997 319.9000000000001 C 393.28 312.7900000000001 392.59999999999997 306.5300000000001 391.33 300.4700000000001 C 390.06 294.4200000000001 388.21 288.5300000000001 385.28 282.1400000000001 C 383.64 278.5500000000001 381.64 274.7600000000001 379.61999999999995 270.9300000000001 C 374.38999999999993 261.0200000000001 369.04999999999995 250.8800000000001 369.06999999999994 242.58000000000013 C 369.0799999999999 239.5000000000001 369.81999999999994 236.69000000000014 371.11999999999995 234.33000000000013 C 372.36999999999995 232.05000000000013 374.13999999999993 230.18000000000012 376.2699999999999 228.88000000000014 C 378.3999999999999 227.58000000000013 380.88999999999993 226.86000000000013 383.56999999999994 226.86000000000013 C 386.18999999999994 226.87000000000012 388.99999999999994 227.57000000000014 391.8299999999999 229.13000000000014 C 398.93999999999994 233.03000000000014 406.19999999999993 242.28000000000014 412.8399999999999 250.74000000000012 C 416.6499999999999 255.60000000000014 420.25999999999993 260.2000000000001 423.4599999999999 263.29000000000013 C 425.7799999999999 265.53000000000014 427.86999999999995 266.9900000000001 429.74999999999994 267.72000000000014 C 431.19999999999993 268.28000000000014 432.50999999999993 268.42000000000013 433.68999999999994 268.16000000000014 C 434.86999999999995 267.90000000000015 435.94999999999993 267.2400000000001 436.94999999999993 266.21000000000015 C 438.2799999999999 264.84000000000015 439.43999999999994 262.82000000000016 440.44999999999993 260.25000000000017 C 442.2099999999999 255.73000000000016 443.4599999999999 249.55000000000018 444.23999999999995 242.48000000000016 C 445.09 234.77000000000015 445.37999999999994 226.03000000000017 445.15999999999997 217.25000000000017 C 445.08 213.92000000000016 444.91999999999996 210.53000000000017 444.77 207.21000000000018 C 444.14 193.6700000000002 443.57 181.2900000000002 448.34 175.02000000000018 C 449.27 173.80000000000018 450.38 172.8200000000002 451.64 172.0700000000002 C 454.21999999999997 170.5300000000002 457.38 169.9700000000002 460.62 170.3700000000002 C 463.82 170.7600000000002 467.12 172.0900000000002 470.05 174.3100000000002 C 472.23 175.9600000000002 474.2 178.1100000000002 475.77000000000004 180.7400000000002 C 478.82000000000005 185.85000000000022 480.35 192.7700000000002 480.8 200.3700000000002 C 481.34000000000003 209.3700000000002 480.40000000000003 219.3700000000002 478.73 228.4600000000002 C 477.38 235.8300000000002 475.56 242.5500000000002 473.98 248.4400000000002 C 471.99 255.83000000000018 470.35 261.8900000000002 470.48 266.00000000000017 C 470.54 267.8500000000002 470.95000000000005 269.2900000000002 471.62 270.27000000000015 C 472.09000000000003 270.96000000000015 472.7 271.42000000000013 473.39 271.6200000000002 C 474.09999999999997 271.82000000000016 474.91999999999996 271.76000000000016 475.81 271.4200000000002 C 477.24 270.8700000000002 478.81 269.6000000000002 480.38 267.5500000000002 C 483.04 264.0600000000002 485.6 258.3600000000002 488.02 251.56000000000017 C 490.46 244.69000000000017 492.75 236.73000000000016 494.85999999999996 228.77000000000018 C 495.28999999999996 227.15000000000018 495.60999999999996 225.90000000000018 495.93999999999994 224.65000000000018 C 499.7699999999999 209.93000000000018 503.3999999999999 195.9500000000002 511.7199999999999 190.49000000000018 C 512.81 189.78000000000017 513.9799999999999 189.21000000000018 515.1999999999999 188.78000000000017 C 519.18 187.39000000000019 523.6899999999999 187.51000000000016 527.7599999999999 188.84000000000017 C 531.8399999999999 190.1700000000002 535.4899999999999 192.72000000000017 537.7599999999999 196.1700000000002 C 538.4099999999999 197.1700000000002 538.9499999999999 198.24000000000018 539.3499999999999 199.40000000000018 C 542.7099999999999 209.02000000000018 536.06 223.1700000000002 529.2499999999999 237.6700000000002 L 528.3599999999999 239.5700000000002 C 524.8599999999999 247.0400000000002 521.43 254.55000000000018 518.8299999999999 261.2700000000002 C 516.2599999999999 267.9100000000002 514.52 273.7500000000002 514.3599999999999 277.9400000000002 C 514.2699999999999 280.41000000000025 514.7299999999999 282.2700000000002 515.56 283.55000000000024 C 516.02 284.2600000000002 516.5899999999999 284.80000000000024 517.2399999999999 285.16000000000025 C 517.8899999999999 285.52000000000027 518.6299999999999 285.71000000000026 519.4099999999999 285.74000000000024 C 520.8499999999999 285.79000000000025 522.4499999999998 285.31000000000023 524.0099999999999 284.31000000000023 C 526.5599999999998 282.67000000000024 528.9899999999999 279.66000000000025 531.3799999999999 275.9000000000002 C 533.8199999999999 272.0700000000002 536.2099999999999 267.4600000000002 538.6799999999998 262.7200000000002 C 541.1599999999999 257.9500000000002 543.7099999999998 253.0400000000002 546.6299999999999 248.86000000000018 C 549.5999999999999 244.62000000000018 552.9199999999998 241.1700000000002 556.9099999999999 239.4400000000002 C 560.9099999999999 237.7100000000002 565.5299999999999 237.7400000000002 569.5599999999998 239.08000000000018 C 573.6699999999998 240.4500000000002 577.1999999999998 243.1900000000002 578.9199999999998 246.83000000000018 C 580.6199999999999 250.4400000000002 580.5299999999999 254.8500000000002 578.9599999999998 260.25000000000017 C 577.4299999999998 265.4900000000002 574.4999999999998 271.6700000000002 570.4499999999998 278.96000000000015 C 566.1299999999998 286.7400000000001 560.5299999999999 295.8000000000001 553.9099999999999 305.3000000000001 C 548.1899999999998 313.5100000000001 541.7099999999998 322.03000000000014 534.6399999999999 330.3200000000001 C 526.6699999999998 339.67000000000013 517.9299999999998 348.7400000000001 508.9499999999999 356.7100000000001 C 500.70999999999987 364.0200000000001 492.2599999999999 370.4100000000001 483.9899999999999 375.2500000000001 C 475.5399999999999 380.2000000000001 467.26999999999987 383.5300000000001 459.3499999999999 385.4300000000001 C 450.9699999999999 387.4400000000001 442.9699999999999 387.8300000000001 435.5599999999999 386.8200000000001 C 428.1299999999999 385.8100000000001 421.2799999999999 383.3800000000001 415.4899999999999 379.5500000000001 C 409.9599999999999 375.8900000000001 405.3899999999999 370.9400000000001 402.1999999999999 364.71000000000015 C 396.40999999999985 353.3700000000002 395.2499999999999 337.90000000000015 394.2399999999999 324.46000000000015 z M 233.56 454.43000000000006 C 230.21 461.46000000000004 226.76 468.51000000000005 221.1 475.93000000000006 C 217.94 480.07000000000005 214.09 484.31000000000006 210.23 487.70000000000005 C 206.81 490.70000000000005 203.36999999999998 493.03000000000003 200.37 494.05000000000007 C 197.16 495.14000000000004 194.43 494.76000000000005 192.13 493.32000000000005 C 189.64 491.76000000000005 187.72 488.95000000000005 186.29999999999998 485.43000000000006 C 185.49999999999997 483.46000000000004 184.85 481.26000000000005 184.17999999999998 478.9700000000001 C 182.70999999999998 473.9800000000001 181.10999999999999 468.56000000000006 177.52999999999997 464.4600000000001 C 174.92999999999998 461.49000000000007 171.18999999999997 459.1200000000001 167.61999999999998 456.8500000000001 C 163.93999999999997 454.5100000000001 160.42999999999998 452.2800000000001 158.28999999999996 449.5100000000001 C 156.16999999999996 446.7600000000001 155.46999999999997 443.5600000000001 155.89999999999998 440.3100000000001 C 156.34999999999997 436.8700000000001 158.05999999999997 433.3700000000001 160.67 430.28000000000014 C 163.32999999999998 427.13000000000017 166.94 424.38000000000017 171.54999999999998 422.64000000000016 C 175.52999999999997 421.14000000000016 180.26999999999998 420.38000000000017 185.79 420.77000000000015 C 197.28 421.5600000000002 212.16 427.27000000000015 227.1 433.07000000000016 C 227.87 431.5500000000002 228.88 430.16000000000014 230.07999999999998 428.97000000000014 C 232.99999999999997 426.0500000000001 237.02999999999997 424.2400000000001 241.48999999999998 424.2400000000001 C 245.68999999999997 424.2400000000001 249.51 425.85000000000014 252.38 428.47000000000014 C 256.9 424.71000000000015 261.43 420.96000000000015 265.92 417.4900000000001 C 270.67 413.8200000000001 275.42 410.4500000000001 280.18 407.65000000000015 C 285.09000000000003 404.76000000000016 290 402.4900000000001 294.68 401.0500000000001 C 299.14 399.6800000000001 303.41 399.0500000000001 307.29 399.34000000000015 C 307.98 399.39000000000016 308.67 399.48000000000013 309.35 399.59000000000015 C 312.77000000000004 400.16000000000014 315.79 401.47000000000014 317.91 403.33000000000015 C 320.12 405.27000000000015 321.37 407.8000000000002 321.15000000000003 410.72000000000014 C 321.13000000000005 410.97000000000014 321.1 411.2400000000001 321.05 411.51000000000016 C 320.53000000000003 414.64000000000016 318.32 418.0500000000002 316.05 421.5500000000002 C 313.75 425.1000000000002 311.38 428.75000000000017 310.86 432.0200000000002 C 310.23 436.0500000000002 312.43 439.87000000000023 314.57 443.5700000000002 C 315.81 445.7100000000002 317.02 447.8200000000002 317.73 449.9600000000002 C 318.8 453.2000000000002 318.71000000000004 456.4800000000002 317.51 459.2500000000002 C 316.36 461.92000000000024 314.19 464.10000000000025 311.03999999999996 465.31000000000023 C 308.09 466.4400000000002 304.28999999999996 466.7000000000002 300.01 466.28000000000026 C 295.36 465.83000000000027 290.14 464.59000000000026 284.82 462.85000000000025 C 274.99 459.62000000000023 264.84 454.65000000000026 254.69 449.6300000000002 C 254.15 450.3900000000002 253.55 451.11000000000024 252.89 451.7600000000002 C 249.97 454.68000000000023 245.94 456.49000000000024 241.48 456.49000000000024 C 238.6 456.49000000000024 235.89999999999998 455.74000000000024 233.56 454.41000000000025 z M 161.98000000000002 297.5200000000001 C 163.19000000000003 298.2300000000001 164.4 298.8700000000001 165.61 299.4200000000001 C 172.38000000000002 302.55000000000007 178.64000000000001 303.01000000000005 184.06 301.24000000000007 C 189.48 299.4700000000001 194.08 295.45000000000005 197.52 289.61000000000007 C 198.15 288.55000000000007 198.74 287.4100000000001 199.29000000000002 286.2100000000001 C 199.52 285.7200000000001 200.10000000000002 285.5000000000001 200.59000000000003 285.7300000000001 C 200.68000000000004 285.7700000000001 200.76000000000002 285.82000000000005 200.83000000000004 285.88000000000005 C 201.57000000000005 286.50000000000006 202.32000000000005 287.09000000000003 203.09000000000003 287.64000000000004 C 209.65000000000003 292.32000000000005 217.49000000000004 294.46000000000004 225.17000000000002 293.67 C 232.85000000000002 292.88 240.39000000000001 289.15000000000003 246.35000000000002 282.09000000000003 C 247.04000000000002 281.27000000000004 247.72000000000003 280.41 248.36 279.50000000000006 C 248.67000000000002 279.06000000000006 249.28 278.96000000000004 249.72000000000003 279.27000000000004 C 249.94000000000003 279.43000000000006 250.08000000000004 279.66 250.12000000000003 279.91 C 251.28000000000003 286.83000000000004 250.66000000000003 292.61 248.75000000000003 297.18 C 246.84000000000003 301.75 243.65000000000003 305.11 239.68000000000004 307.19 L 239.62000000000003 307.21999999999997 C 235.69000000000003 309.27 231.00000000000003 310.07 226.03000000000003 309.57 C 220.18000000000004 308.98 213.93000000000004 306.58 208.10000000000002 302.29 C 206.19000000000003 308.82 202.35000000000002 313.59000000000003 197.61 316.52000000000004 C 193.93 318.8 189.70000000000002 319.96000000000004 185.43 319.96000000000004 C 181.17000000000002 319.96000000000004 176.86 318.81000000000006 172.99 316.46000000000004 C 167.38 313.05 162.71 307.13000000000005 160.49 298.59000000000003 C 160.35000000000002 298.07000000000005 160.67000000000002 297.53000000000003 161.19 297.40000000000003 C 161.46 297.33000000000004 161.73 297.38000000000005 161.95 297.52000000000004 z M 196.99 181.1100000000001 C 197.41 172.9000000000001 199.37 166.6100000000001 202.36 162.3400000000001 C 204.64000000000001 159.0900000000001 207.51000000000002 156.9900000000001 210.76000000000002 156.10000000000008 C 214.00000000000003 155.20000000000007 217.59000000000003 155.51000000000008 221.31000000000003 157.0600000000001 C 226.52000000000004 159.23000000000008 232.02000000000004 163.85000000000008 237.17000000000002 171.0500000000001 C 237.48000000000002 171.4900000000001 237.38000000000002 172.1000000000001 236.94000000000003 172.4100000000001 C 236.64000000000001 172.62000000000012 236.26000000000002 172.6400000000001 235.95000000000002 172.49000000000012 C 228.16000000000003 168.71000000000012 220.84000000000003 167.55000000000013 214.46 169.14000000000013 C 208.27 170.68000000000012 202.91 174.82000000000014 198.82 181.66000000000014 C 198.54 182.12000000000015 197.94 182.27000000000015 197.48 182.00000000000014 C 197.16 181.81000000000014 196.98999999999998 181.46000000000015 197.01 181.12000000000015 z M 209.92000000000002 228.2600000000001 C 207.83 217.8800000000001 207.28000000000003 207.2600000000001 208.98000000000002 199.9000000000001 C 209.84000000000003 196.19000000000008 211.27 193.29000000000008 213.08 191.2000000000001 C 214.93 189.0700000000001 217.17000000000002 187.7900000000001 219.61 187.3800000000001 C 222.03 186.9700000000001 224.63000000000002 187.4400000000001 227.19000000000003 188.7900000000001 C 229.96000000000004 190.2500000000001 232.71000000000004 192.7500000000001 235.16000000000003 196.31000000000012 C 239.60000000000002 202.7500000000001 243.14000000000001 212.74000000000012 245.13000000000002 222.9400000000001 C 247.14000000000001 233.2000000000001 247.61 243.7200000000001 245.89000000000001 251.12000000000012 C 245.00000000000003 254.96000000000012 243.52 257.9900000000001 241.65 260.16000000000014 C 239.82 262.28000000000014 237.63 263.58000000000015 235.24 264.01000000000016 C 232.86 264.45000000000016 230.32000000000002 264.02000000000015 227.8 262.69000000000017 C 225.14000000000001 261.2900000000002 222.51000000000002 258.8700000000002 220.11 255.40000000000018 C 215.65 248.93000000000018 212 238.69000000000017 209.9 228.26000000000016 z M 222.63000000000002 205.1700000000001 C 222.16000000000003 208.2600000000001 222.58 212.6600000000001 223.61 216.8900000000001 C 224.61 220.9600000000001 226.16000000000003 224.8500000000001 228.01000000000002 227.2600000000001 C 228.95000000000002 228.4800000000001 229.97000000000003 229.3000000000001 230.96 229.7300000000001 C 231.79000000000002 230.09000000000012 232.59 230.1800000000001 233.32000000000002 230.0000000000001 C 234.04000000000002 229.8200000000001 234.69000000000003 229.3800000000001 235.23000000000002 228.6900000000001 C 235.84000000000003 227.90000000000012 236.29000000000002 226.7900000000001 236.51000000000002 225.3600000000001 C 236.96 222.4000000000001 236.41000000000003 218.2000000000001 235.27 214.1000000000001 C 234.09 209.8300000000001 232.28 205.7100000000001 230.35000000000002 203.2000000000001 C 229.39000000000001 201.9600000000001 228.42000000000002 201.1400000000001 227.51000000000002 200.7200000000001 C 226.8 200.3900000000001 226.13000000000002 200.31000000000012 225.53000000000003 200.4700000000001 C 224.94000000000003 200.62000000000012 224.39000000000004 201.02000000000012 223.92000000000002 201.65000000000012 C 223.32000000000002 202.46000000000012 222.87 203.64000000000013 222.64000000000001 205.17000000000013 z M 225.26000000000002 244.6300000000001 C 224.63000000000002 246.15000000000012 224.61 248.2200000000001 225.10000000000002 250.1700000000001 C 225.57000000000002 252.03000000000011 226.50000000000003 253.7400000000001 227.79000000000002 254.7100000000001 C 228.12000000000003 254.9600000000001 228.48000000000002 255.16000000000008 228.85000000000002 255.3200000000001 C 229.93000000000004 255.7700000000001 231.16000000000003 255.84000000000012 232.27 255.5700000000001 C 233.37 255.3000000000001 234.37 254.7100000000001 235.03 253.84000000000012 C 235.23 253.58000000000013 235.39000000000001 253.2900000000001 235.52 252.9800000000001 C 236.11 251.56000000000012 235.98000000000002 249.6000000000001 235.38000000000002 247.7200000000001 C 234.74000000000004 245.7300000000001 233.59000000000003 243.87000000000012 232.21000000000004 242.83000000000013 C 231.85000000000002 242.56000000000012 231.48000000000005 242.35000000000014 231.11000000000004 242.19000000000014 C 230.15000000000003 241.79000000000013 229.14000000000004 241.74000000000015 228.21000000000004 241.99000000000015 C 227.29000000000005 242.24000000000015 226.46000000000004 242.79000000000016 225.85000000000002 243.60000000000016 C 225.62000000000003 243.91000000000017 225.42000000000002 244.26000000000016 225.26000000000002 244.64000000000016 z M 126.02000000000002 198.0000000000001 C 126.44000000000003 189.7900000000001 128.40000000000003 183.5000000000001 131.39000000000001 179.2300000000001 C 133.67000000000002 175.9800000000001 136.54000000000002 173.8800000000001 139.79000000000002 172.9900000000001 C 143.03000000000003 172.0900000000001 146.62000000000003 172.4000000000001 150.34000000000003 173.9500000000001 C 155.55000000000004 176.1200000000001 161.05000000000004 180.7400000000001 166.20000000000005 187.9400000000001 C 166.51000000000005 188.3800000000001 166.41000000000005 188.99000000000012 165.97000000000006 189.30000000000013 C 165.67000000000004 189.51000000000013 165.29000000000005 189.53000000000011 164.98000000000005 189.38000000000014 C 157.19000000000005 185.60000000000014 149.87000000000006 184.44000000000014 143.49000000000004 186.03000000000014 C 137.30000000000004 187.57000000000014 131.94000000000003 191.71000000000015 127.85000000000004 198.55000000000015 C 127.57000000000004 199.01000000000016 126.97000000000004 199.16000000000017 126.51000000000003 198.89000000000016 C 126.19000000000004 198.70000000000016 126.02000000000004 198.35000000000016 126.04000000000003 198.01000000000016 z M 138.95000000000002 245.15000000000012 C 136.86 234.77000000000012 136.31000000000003 224.15000000000012 138.01000000000002 216.79000000000013 C 138.87000000000003 213.08000000000013 140.3 210.18000000000012 142.11 208.09000000000015 C 143.96 205.96000000000015 146.20000000000002 204.68000000000015 148.64000000000001 204.27000000000015 C 151.06 203.86000000000016 153.66000000000003 204.33000000000015 156.22000000000003 205.68000000000015 C 158.99000000000004 207.14000000000016 161.74000000000004 209.64000000000016 164.19000000000003 213.20000000000016 C 168.63000000000002 219.64000000000016 172.17000000000002 229.63000000000017 174.16000000000003 239.83000000000015 C 176.17000000000002 250.09000000000015 176.64000000000001 260.6100000000001 174.92000000000002 268.01000000000016 C 174.03000000000003 271.85000000000014 172.55 274.88000000000017 170.68 277.0500000000002 C 168.85 279.1700000000002 166.66 280.4700000000002 164.27 280.9000000000002 C 161.89000000000001 281.3400000000002 159.35000000000002 280.9100000000002 156.83 279.5800000000002 C 154.17000000000002 278.18000000000023 151.54000000000002 275.7600000000002 149.14000000000001 272.2900000000002 C 144.68 265.82000000000016 141.03000000000003 255.58000000000018 138.93 245.1500000000002 z M 151.66000000000003 222.06000000000012 C 151.19000000000003 225.15000000000012 151.61 229.55000000000013 152.64000000000001 233.78000000000011 C 153.64000000000001 237.8500000000001 155.19000000000003 241.74000000000012 157.04000000000002 244.15000000000012 C 157.98000000000002 245.37000000000012 159.00000000000003 246.1900000000001 159.99 246.62000000000012 C 160.82000000000002 246.98000000000013 161.62 247.0700000000001 162.35000000000002 246.89000000000013 C 163.07000000000002 246.71000000000012 163.72000000000003 246.27000000000012 164.26000000000002 245.58000000000013 C 164.87000000000003 244.79000000000013 165.32000000000002 243.68000000000012 165.54000000000002 242.2500000000001 C 165.99 239.2900000000001 165.44000000000003 235.09000000000012 164.3 230.99000000000012 C 163.12 226.7200000000001 161.31 222.60000000000014 159.38000000000002 220.09000000000012 C 158.42000000000002 218.8500000000001 157.45000000000002 218.03000000000011 156.54000000000002 217.61000000000013 C 155.83 217.28000000000011 155.16000000000003 217.20000000000013 154.56000000000003 217.36000000000013 C 153.97000000000003 217.51000000000013 153.42000000000004 217.91000000000014 152.95000000000002 218.54000000000013 C 152.35000000000002 219.35000000000014 151.9 220.53000000000014 151.67000000000002 222.06000000000014 z M 154.29000000000002 261.5200000000001 C 153.66000000000003 263.0400000000001 153.64000000000001 265.11000000000007 154.13000000000002 267.0600000000001 C 154.60000000000002 268.92000000000013 155.53000000000003 270.6300000000001 156.82000000000002 271.60000000000014 C 157.15000000000003 271.85000000000014 157.51000000000002 272.0500000000001 157.88000000000002 272.21000000000015 C 158.96000000000004 272.66000000000014 160.19000000000003 272.73000000000013 161.3 272.46000000000015 C 162.4 272.19000000000017 163.4 271.60000000000014 164.06 270.73000000000013 C 164.26 270.47000000000014 164.42000000000002 270.1800000000001 164.55 269.8700000000001 C 165.14000000000001 268.4500000000001 165.01000000000002 266.4900000000001 164.41000000000003 264.6100000000001 C 163.77000000000004 262.6200000000001 162.62000000000003 260.7600000000001 161.24000000000004 259.72000000000014 C 160.88000000000002 259.45000000000016 160.51000000000005 259.2400000000001 160.14000000000004 259.08000000000015 C 159.18000000000004 258.6800000000002 158.17000000000004 258.63000000000017 157.24000000000004 258.88000000000017 C 156.32000000000005 259.13000000000017 155.49000000000004 259.6800000000002 154.88000000000002 260.4900000000002 C 154.65000000000003 260.8000000000002 154.45000000000002 261.1500000000002 154.29000000000002 261.5300000000002 z M 140.8 -0.009999999999877218 C 145.43 -0.009999999999877218 149.62 1.8700000000001227 152.65 4.900000000000123 C 155.68 7.930000000000122 157.56 12.120000000000122 157.56 16.75000000000012 C 157.56 21.38000000000012 155.68 25.57000000000012 152.65 28.600000000000122 C 149.62 31.630000000000123 145.43 33.51000000000012 140.8 33.51000000000012 C 136.17000000000002 33.51000000000012 131.98000000000002 31.63000000000012 128.95000000000002 28.60000000000012 C 125.92000000000002 25.570000000000118 124.04000000000002 21.38000000000012 124.04000000000002 16.75000000000012 C 124.04000000000002 12.120000000000122 125.92000000000002 7.9300000000001205 128.95000000000002 4.900000000000121 C 131.98000000000002 1.8700000000001213 136.17000000000002 -0.009999999999878995 140.8 -0.009999999999878995 z M 416.62 81.94000000000013 C 467.86 94.75000000000013 467.18 90.01000000000013 416.62 102.65000000000012 C 403.81 153.89000000000013 408.55 153.21000000000012 395.91 102.65000000000012 C 344.67 89.84000000000012 345.35 94.58000000000013 395.91 81.94000000000011 C 408.72 30.70000000000011 403.98 31.38000000000011 416.62 81.94000000000011 z M 80.07999999999998 411.42000000000013 C 113.57 419.79000000000013 112.93999999999998 417.1100000000001 80.07999999999998 425.3200000000001 C 71.70999999999998 458.8100000000001 74.38999999999999 458.1800000000001 66.17999999999998 425.3200000000001 C 32.689999999999976 416.9500000000001 33.31999999999998 419.6300000000001 66.17999999999998 411.42000000000013 C 74.54999999999998 377.9300000000001 71.86999999999998 378.5600000000001 80.07999999999998 411.42000000000013 z M 282.62 387.34000000000015 L 264.89 316.91000000000014 L 264.89 316.8700000000001 C 264.27 314.3000000000001 264.53 311.5800000000001 265.63 309.1900000000001 C 272.18 295.0600000000001 278.71999999999997 280.9300000000001 281 265.8600000000001 C 281.28 263.98000000000013 281.49 262.2600000000001 281.64 260.7000000000001 C 281.8 258.9300000000001 281.90999999999997 257.1400000000001 281.96999999999997 255.3200000000001 C 282.03999999999996 253.4200000000001 282.04999999999995 251.5200000000001 282.02 249.6400000000001 C 281.99 247.8200000000001 281.90999999999997 245.8400000000001 281.77 243.7300000000001 C 281.64 241.6600000000001 281.46 239.6000000000001 281.22999999999996 237.5400000000001 C 281.00999999999993 235.5400000000001 280.72999999999996 233.4100000000001 280.37999999999994 231.1400000000001 C 280.0299999999999 228.8600000000001 279.6499999999999 226.6700000000001 279.24999999999994 224.5700000000001 C 278.81999999999994 222.37000000000012 278.3399999999999 220.1300000000001 277.81999999999994 217.8800000000001 C 277.3499999999999 215.8500000000001 276.8399999999999 213.84000000000012 276.30999999999995 211.8500000000001 C 275.73999999999995 209.7500000000001 275.17999999999995 207.8000000000001 274.61999999999995 206.0000000000001 C 274.04999999999995 204.1700000000001 273.41999999999996 202.28000000000011 272.72999999999996 200.31000000000012 C 272.04999999999995 198.39000000000013 271.34999999999997 196.5400000000001 270.64 194.78000000000011 C 269.89 192.9100000000001 269.12 191.14000000000013 268.34999999999997 189.4500000000001 C 267.58 187.78000000000011 266.73999999999995 186.06000000000012 265.83 184.2900000000001 C 265.02 182.7200000000001 264.09999999999997 181.06000000000012 263.09 179.3200000000001 C 262.02 177.4900000000001 261.03999999999996 175.90000000000012 260.14 174.5400000000001 C 259.15 173.0400000000001 258.07 171.5000000000001 256.90999999999997 169.9300000000001 C 255.74999999999997 168.3700000000001 254.58999999999997 166.9000000000001 253.42999999999998 165.50000000000009 C 252.30999999999997 164.16000000000008 251.06999999999996 162.76000000000008 249.71999999999997 161.3100000000001 C 248.43999999999997 159.94000000000008 247.13999999999996 158.63000000000008 245.81999999999996 157.3600000000001 C 244.50999999999996 156.1100000000001 243.15999999999997 154.8900000000001 241.76999999999995 153.7100000000001 C 240.31999999999996 152.4800000000001 238.91999999999996 151.3600000000001 237.57999999999996 150.35000000000008 C 236.14999999999995 149.2800000000001 234.70999999999995 148.26000000000008 233.26999999999995 147.3100000000001 C 231.95999999999995 146.44000000000008 230.46999999999994 145.5300000000001 228.80999999999995 144.5800000000001 C 227.28999999999994 143.7100000000001 225.82999999999996 142.9300000000001 224.43999999999994 142.2400000000001 C 222.92999999999995 141.4900000000001 221.40999999999994 140.7900000000001 219.86999999999995 140.1400000000001 C 218.20999999999995 139.4300000000001 216.62999999999994 138.8100000000001 215.13999999999996 138.2800000000001 C 213.59999999999997 137.73000000000008 211.97999999999996 137.20000000000007 210.25999999999996 136.69000000000008 C 208.67999999999995 136.22000000000008 206.97999999999996 135.7700000000001 205.16999999999996 135.3400000000001 C 203.23999999999995 134.88000000000008 201.51999999999995 134.51000000000008 200.00999999999996 134.2400000000001 C 198.45999999999995 133.9600000000001 196.71999999999997 133.7000000000001 194.77999999999997 133.4500000000001 C 192.93999999999997 133.2200000000001 191.17999999999998 133.0500000000001 189.48999999999998 132.9300000000001 C 187.71999999999997 132.8000000000001 186.10999999999999 132.7300000000001 184.67999999999998 132.7000000000001 C 183.12999999999997 132.6700000000001 181.55999999999997 132.6900000000001 179.98999999999998 132.7500000000001 C 178.45999999999998 132.81000000000012 176.93999999999997 132.9200000000001 175.42999999999998 133.0700000000001 C 173.95 133.2200000000001 172.46999999999997 133.4100000000001 170.98999999999998 133.6600000000001 C 169.61999999999998 133.8900000000001 168.18999999999997 134.1700000000001 166.70999999999998 134.52000000000012 C 165.23 134.87000000000012 163.82999999999998 135.24000000000012 162.52999999999997 135.64000000000013 C 161.06999999999996 136.09000000000012 159.69999999999996 136.56000000000012 158.41999999999996 137.05000000000013 C 157.10999999999996 137.55000000000013 155.77999999999997 138.12000000000012 154.43999999999997 138.7500000000001 C 153.07999999999996 139.3900000000001 151.69999999999996 140.1000000000001 150.29999999999998 140.8900000000001 C 148.93999999999997 141.6600000000001 147.61999999999998 142.4800000000001 146.32999999999998 143.3400000000001 C 145.11999999999998 144.16000000000008 143.89 145.0600000000001 142.64 146.0500000000001 C 141.45 147.00000000000009 140.29 147.9900000000001 139.17 149.0400000000001 C 138.1 150.0400000000001 137.04999999999998 151.1000000000001 136.03 152.2200000000001 C 135 153.3500000000001 134.04 154.4800000000001 133.16 155.6300000000001 C 132.26 156.8000000000001 131.4 158.0100000000001 130.57999999999998 159.2600000000001 C 129.79999999999998 160.4500000000001 129.04999999999998 161.7300000000001 128.30999999999997 163.1000000000001 C 127.57999999999997 164.4400000000001 126.88999999999997 165.8600000000001 126.22999999999998 167.3500000000001 C 125.52999999999997 168.93000000000012 124.89999999999998 170.4900000000001 124.34999999999998 172.0200000000001 L 124.33999999999997 172.0200000000001 C 123.74999999999997 173.6400000000001 123.20999999999998 175.3300000000001 122.69999999999997 177.0800000000001 C 122.18999999999997 178.8300000000001 121.72999999999998 180.6400000000001 121.29999999999997 182.5100000000001 C 120.87999999999997 184.3600000000001 120.48999999999997 186.3500000000001 120.12999999999997 188.4600000000001 C 119.77999999999997 190.4800000000001 119.47999999999996 192.5800000000001 119.22999999999996 194.72000000000008 C 118.96999999999996 196.9300000000001 118.75999999999996 199.1200000000001 118.60999999999996 201.2700000000001 C 118.43999999999996 203.6800000000001 118.32999999999996 205.9200000000001 118.26999999999995 208.0100000000001 C 118.20999999999995 210.1900000000001 118.19999999999996 212.3500000000001 118.22999999999995 214.5200000000001 C 118.25999999999995 216.5600000000001 118.33999999999995 218.7300000000001 118.46999999999994 221.0200000000001 C 118.58999999999995 223.2700000000001 118.75999999999995 225.44000000000008 118.95999999999994 227.5500000000001 C 119.15999999999994 229.6700000000001 119.41999999999993 231.8500000000001 119.71999999999994 234.0800000000001 C 119.98999999999994 236.0500000000001 120.32999999999994 238.1900000000001 120.73999999999994 240.5300000000001 C 121.11999999999993 242.69000000000008 121.54999999999994 244.85000000000008 122.02999999999994 247.01000000000008 C 122.53999999999995 249.3400000000001 123.04999999999994 251.49000000000007 123.55999999999995 253.46000000000006 C 124.04999999999994 255.35000000000005 124.65999999999994 257.50000000000006 125.38999999999994 259.9000000000001 C 126.04999999999994 262.0800000000001 126.73999999999994 264.2200000000001 127.44999999999995 266.30000000000007 C 128.25999999999993 268.6600000000001 129.02999999999994 270.7800000000001 129.73999999999995 272.64000000000004 C 130.51999999999995 274.68000000000006 131.36999999999995 276.76000000000005 132.27999999999994 278.88000000000005 C 133.14999999999995 280.91 134.05999999999995 282.9200000000001 134.99999999999994 284.89000000000004 C 135.91999999999993 286.82000000000005 136.84999999999994 288.69000000000005 137.80999999999995 290.50000000000006 C 138.80999999999995 292.40000000000003 139.76999999999995 294.13000000000005 140.68999999999994 295.70000000000005 C 141.65999999999994 297.36000000000007 142.62999999999994 298.93000000000006 143.58999999999995 300.38000000000005 C 144.43999999999994 301.68000000000006 145.40999999999994 303.05000000000007 146.48999999999995 304.49000000000007 C 147.46999999999994 305.80000000000007 148.38999999999996 306.95000000000005 149.24999999999994 307.95000000000005 C 150.15999999999994 309.01000000000005 151.06999999999994 310.00000000000006 151.96999999999994 310.91 C 152.89999999999995 311.85 153.79999999999995 312.69 154.66999999999993 313.46000000000004 C 155.53999999999994 314.22 156.42999999999992 314.96000000000004 157.35999999999993 315.68000000000006 C 158.28999999999994 316.4000000000001 159.22999999999993 317.08000000000004 160.16999999999993 317.74000000000007 C 160.96999999999994 318.2900000000001 161.96999999999994 318.95000000000005 163.10999999999993 319.6700000000001 C 164.16999999999993 320.3400000000001 165.17999999999992 320.9600000000001 166.16999999999993 321.56000000000006 C 167.53999999999994 322.38000000000005 168.40999999999994 322.90000000000003 169.27999999999994 323.4100000000001 L 169.32999999999996 323.44000000000005 C 170.03999999999996 323.86000000000007 170.70999999999995 324.36000000000007 171.31999999999996 324.9200000000001 C 171.92999999999998 325.49000000000007 172.48999999999995 326.11000000000007 172.96999999999997 326.80000000000007 C 173.41999999999996 327.45000000000005 173.82999999999998 328.18000000000006 174.16999999999996 328.9800000000001 C 174.49999999999997 329.76000000000005 174.74999999999997 330.55000000000007 174.89999999999995 331.3400000000001 L 187.93999999999994 399.1600000000001 C 190.46999999999994 399.4200000000001 193.09999999999994 399.6600000000001 195.82999999999993 399.87000000000006 C 199.92999999999992 400.19000000000005 203.98999999999992 400.44000000000005 207.91999999999993 400.56000000000006 C 212.16999999999993 400.70000000000005 216.49999999999994 400.7200000000001 220.87999999999994 400.59000000000003 C 225.18999999999994 400.46000000000004 229.59999999999994 400.18 234.10999999999993 399.69000000000005 C 238.57999999999993 399.21000000000004 243.06999999999994 398.53000000000003 247.51999999999992 397.69000000000005 C 252.08999999999992 396.82000000000005 256.67999999999995 395.76000000000005 261.2199999999999 394.5400000000001 C 265.7699999999999 393.32000000000005 270.13999999999993 391.9700000000001 274.2699999999999 390.5300000000001 C 277.11999999999995 389.5300000000001 279.92999999999995 388.4700000000001 282.6499999999999 387.36000000000007 z" stroke-linecap="round" />
</g>
</g>
</g>
<g transform="matrix(1.9211538461538462 0 0 1.9211538461538462 628.7900673076923 676.042404015971)" id="text-logo"  >
<g style=""  paint-order="stroke"   >
		<g transform="matrix(1 0 0 1 0 0)" id="text-logo-path-0"  >
<path style="stroke: none; stroke-width: 0; stroke-dasharray: none; stroke-linecap: butt; stroke-dashoffset: 0; stroke-linejoin: miter; stroke-miterlimit: 4; fill: #4ecddb; fill-rule: nonzero; opacity: 1;"  paint-order="stroke"  transform=" translate(-279.12, 20.82)" d="M 7.44 -2.16 L 7.44 -10.14 C 7.44 -11.64 8.64 -12.84 10.14 -12.84 L 14.16 -12.84 C 15.66 -12.84 17.58 -11.88 18.48 -10.68 L 26.52 -0.24 C 26.94 0.3 27.6 0.66 28.38 0.66 C 29.7 0.66 30.78 -0.36 30.78 -1.74 C 30.78 -2.28 30.6 -2.76 30.3 -3.18 L 23.88 -11.52 C 22.98 -12.72 23.34 -14.16 24.72 -14.82 C 29.1 -17.34 32.1 -22.08 32.1 -27.42 C 32.1 -35.34 25.44 -42 17.52 -42 L 5.94 -42 C 4.14 -42 2.64 -40.5 2.64 -38.7 L 2.64 -2.16 C 2.64 -0.84 3.72 0.24 5.04 0.24 C 6.36 0.24 7.44 -0.84 7.44 -2.16 Z M 7.44 -20.34 L 7.44 -20.34 L 7.44 -34.5 C 7.44 -36 8.64 -37.2 10.14 -37.2 L 17.52 -37.2 C 23.1 -37.2 27.3 -33 27.3 -27.42 C 27.3 -21.84 23.1 -17.64 17.52 -17.64 L 10.14 -17.64 C 8.64 -17.64 7.44 -18.84 7.44 -20.34 Z M 60.78 -4.5 C 51.36 -4.5 44.22 -11.64 44.22 -21.06 C 44.22 -30.36 51.36 -37.5 60.78 -37.5 C 70.14 -37.5 77.28 -30.36 77.28 -21.06 C 77.28 -11.64 70.14 -4.5 60.78 -4.5 Z M 60.78 0.3 C 72.48 0.3 82.08 -9.3 82.08 -21.06 C 82.08 -32.7 72.48 -42.3 60.78 -42.3 C 49.02 -42.3 39.42 -32.7 39.42 -21.06 C 39.42 -9.3 49.02 0.3 60.78 0.3 Z M 92.7 0 L 110.4 0 C 116.82 0 122.04 -5.28 122.04 -11.7 C 122.04 -15.9 119.76 -19.62 116.4 -21.72 C 115.02 -22.38 114.6 -23.88 115.44 -25.08 C 116.28 -26.64 116.7 -28.44 116.7 -30.3 C 116.7 -36.66 111.36 -42 105 -42 L 92.7 -42 C 90.9 -42 89.4 -40.5 89.4 -38.7 L 89.4 -3.3 C 89.4 -1.5 90.9 0 92.7 0 Z M 94.2 -7.5 L 94.2 -7.5 L 94.2 -19.02 C 95.04 -18.78 95.94 -18.6 96.66 -18.6 L 110.4 -18.6 C 114.48 -18.6 117.24 -15.84 117.24 -11.7 C 117.24 -7.56 114.48 -4.8 110.4 -4.8 L 96.9 -4.8 C 95.4 -4.8 94.2 -6 94.2 -7.5 Z M 94.2 -22.98 L 94.2 -34.5 C 94.2 -36 95.4 -37.2 96.9 -37.2 L 105 -37.2 C 109.02 -37.2 111.9 -34.32 111.9 -30.3 C 111.9 -26.28 109.02 -23.4 105 -23.4 L 96.66 -23.4 C 95.94 -23.4 95.04 -23.22 94.2 -22.98 Z M 149.52 -4.5 C 140.1 -4.5 132.96 -11.64 132.96 -21.06 C 132.96 -30.36 140.1 -37.5 149.52 -37.5 C 158.88 -37.5 166.02 -30.36 166.02 -21.06 C 166.02 -11.64 158.88 -4.5 149.52 -4.5 Z M 149.52 0.3 C 161.22 0.3 170.82 -9.3 170.82 -21.06 C 170.82 -32.7 161.22 -42.3 149.52 -42.3 C 137.76 -42.3 128.16 -32.7 128.16 -21.06 C 128.16 -9.3 137.76 0.3 149.52 0.3 Z M 192.48 -2.16 L 192.48 -34.5 C 192.48 -36 193.68 -37.2 195.18 -37.2 L 203.22 -37.2 C 204.54 -37.2 205.62 -38.28 205.62 -39.6 C 205.62 -40.92 204.54 -42 203.22 -42 L 176.94 -42 C 175.62 -42 174.54 -40.92 174.54 -39.6 C 174.54 -38.28 175.62 -37.2 176.94 -37.2 L 184.98 -37.2 C 186.48 -37.2 187.68 -36 187.68 -34.5 L 187.68 -2.16 C 187.68 -0.84 188.76 0.24 190.08 0.24 C 191.4 0.24 192.48 -0.84 192.48 -2.16 Z M 213.48 -6.96 C 217.14 -2.58 222.24 0.3 228.06 0.3 C 235.92 0.3 241.68 -5.16 241.68 -10.62 C 241.68 -18.18 234.66 -21.84 228.66 -24.06 C 222.96 -26.22 219.3 -27.96 219.3 -31.38 C 219.3 -34.5 222.06 -37.5 227.88 -37.5 C 232.32 -37.5 234.96 -35.76 236.88 -33.12 C 237.3 -32.52 238.02 -32.1 238.8 -32.1 C 240.12 -32.1 241.2 -33.18 241.2 -34.5 C 241.2 -35.04 241.02 -35.52 240.72 -35.94 C 238.14 -39.42 234.06 -42.3 227.88 -42.3 C 219.6 -42.3 214.5 -36.72 214.5 -31.38 C 214.5 -24.78 220.98 -21.84 226.98 -19.62 C 232.5 -17.46 236.88 -15.18 236.88 -10.62 C 236.88 -7.56 233.64 -4.5 228.06 -4.5 C 223.62 -4.5 220.08 -6.48 217.14 -10.02 C 216.72 -10.56 216.06 -10.86 215.34 -10.86 C 214.02 -10.86 212.94 -9.78 212.94 -8.46 C 212.94 -7.92 213.12 -7.38 213.48 -6.96 Z M 274.56 -2.16 L 274.56 -7.5 C 274.56 -9 275.76 -10.2 277.26 -10.2 L 277.74 -10.2 C 279.06 -10.2 280.14 -11.28 280.14 -12.6 C 280.14 -13.92 279.06 -15 277.74 -15 L 277.26 -15 C 275.76 -15 274.56 -16.2 274.56 -17.7 L 274.56 -38.82 C 274.56 -42.18 270.36 -43.5 268.44 -40.74 L 249.54 -14.94 C 248.04 -12.78 249.78 -10.2 252.18 -10.2 L 267.06 -10.2 C 268.56 -10.2 269.76 -9 269.76 -7.5 L 269.76 -2.16 C 269.76 -0.84 270.84 0.24 272.16 0.24 C 273.48 0.24 274.56 -0.84 274.56 -2.16 Z M 257.16 -17.16 L 257.16 -17.16 L 268.14 -32.34 C 269.04 -33.54 269.76 -33.3 269.76 -31.8 L 269.76 -17.7 C 269.76 -16.2 268.56 -15 267.06 -15 L 258.24 -15 C 256.74 -15 256.26 -15.96 257.16 -17.16 Z M 272.28 -37.92 L 272.28 -37.98 Z M 290.76 0 L 308.46 0 C 314.88 0 320.1 -5.28 320.1 -11.7 C 320.1 -15.9 317.82 -19.62 314.46 -21.72 C 313.08 -22.38 312.66 -23.88 313.5 -25.08 C 314.34 -26.64 314.76 -28.44 314.76 -30.3 C 314.76 -36.66 309.42 -42 303.06 -42 L 290.76 -42 C 288.96 -42 287.46 -40.5 287.46 -38.7 L 287.46 -3.3 C 287.46 -1.5 288.96 0 290.76 0 Z M 292.26 -7.5 L 292.26 -7.5 L 292.26 -19.02 C 293.1 -18.78 294 -18.6 294.72 -18.6 L 308.46 -18.6 C 312.54 -18.6 315.3 -15.84 315.3 -11.7 C 315.3 -7.56 312.54 -4.8 308.46 -4.8 L 294.96 -4.8 C 293.46 -4.8 292.26 -6 292.26 -7.5 Z M 292.26 -22.98 L 292.26 -34.5 C 292.26 -36 293.46 -37.2 294.96 -37.2 L 303.06 -37.2 C 307.08 -37.2 309.96 -34.32 309.96 -30.3 C 309.96 -26.28 307.08 -23.4 303.06 -23.4 L 294.72 -23.4 C 294 -23.4 293.1 -23.22 292.26 -22.98 Z M 355.62 -39.84 L 355.62 -16.2 C 355.62 -9.48 350.64 -4.5 343.92 -4.5 C 337.2 -4.5 332.22 -9.48 332.22 -16.2 L 332.22 -39.84 C 332.22 -41.16 331.14 -42.24 329.82 -42.24 C 328.5 -42.24 327.42 -41.16 327.42 -39.84 L 327.42 -16.2 C 327.42 -7.14 334.86 0.3 343.92 0.3 C 352.98 0.3 360.42 -7.14 360.42 -16.2 L 360.42 -39.84 C 360.42 -41.16 359.34 -42.24 358.02 -42.24 C 356.7 -42.24 355.62 -41.16 355.62 -39.84 Z M 368.28 -6.96 C 371.94 -2.58 377.04 0.3 382.86 0.3 C 390.72 0.3 396.48 -5.16 396.48 -10.62 C 396.48 -18.18 389.46 -21.84 383.46 -24.06 C 377.76 -26.22 374.1 -27.96 374.1 -31.38 C 374.1 -34.5 376.86 -37.5 382.68 -37.5 C 387.12 -37.5 389.76 -35.76 391.68 -33.12 C 392.1 -32.52 392.82 -32.1 393.6 -32.1 C 394.92 -32.1 396 -33.18 396 -34.5 C 396 -35.04 395.82 -35.52 395.52 -35.94 C 392.94 -39.42 388.86 -42.3 382.68 -42.3 C 374.4 -42.3 369.3 -36.72 369.3 -31.38 C 369.3 -24.78 375.78 -21.84 381.78 -19.62 C 387.3 -17.46 391.68 -15.18 391.68 -10.62 C 391.68 -7.56 388.44 -4.5 382.86 -4.5 C 378.42 -4.5 374.88 -6.48 371.94 -10.02 C 371.52 -10.56 370.86 -10.86 370.14 -10.86 C 368.82 -10.86 367.74 -9.78 367.74 -8.46 C 367.74 -7.92 367.92 -7.38 368.28 -6.96 Z M 408.6 -2.16 L 408.6 -39.84 C 408.6 -41.16 407.52 -42.24 406.2 -42.24 C 404.88 -42.24 403.8 -41.16 403.8 -39.84 L 403.8 -2.16 C 403.8 -0.84 404.88 0.24 406.2 0.24 C 407.52 0.24 408.6 -0.84 408.6 -2.16 Z M 420.72 -2.16 L 420.72 -31.44 C 420.72 -32.94 421.38 -33.12 422.22 -31.92 L 442.74 -1.38 C 444.54 1.44 448.92 0.12 448.92 -3.3 L 448.92 -39.84 C 448.92 -41.16 447.84 -42.24 446.52 -42.24 C 445.2 -42.24 444.12 -41.16 444.12 -39.84 L 444.12 -10.56 C 444.12 -9.06 443.46 -8.88 442.62 -10.08 L 422.1 -40.62 C 420.3 -43.44 415.92 -42.12 415.92 -38.7 L 415.92 -2.16 C 415.92 -0.84 417 0.24 418.32 0.24 C 419.64 0.24 420.72 -0.84 420.72 -2.16 Z M 418.14 -37.98 L 418.2 -37.92 Z M 446.64 -4.08 L 446.7 -4.02 Z M 481.08 -4.8 L 463.74 -4.8 C 462.24 -4.8 461.04 -6 461.04 -7.5 L 461.04 -15.9 C 461.04 -17.4 462.24 -18.6 463.74 -18.6 L 476.88 -18.6 C 478.2 -18.6 479.28 -19.68 479.28 -21 C 479.28 -22.32 478.2 -23.4 476.88 -23.4 L 463.74 -23.4 C 462.24 -23.4 461.04 -24.6 461.04 -26.1 L 461.04 -34.5 C 461.04 -36 462.24 -37.2 463.74 -37.2 L 481.08 -37.2 C 482.4 -37.2 483.48 -38.28 483.48 -39.6 C 483.48 -40.92 482.4 -42 481.08 -42 L 459.54 -42 C 457.74 -42 456.24 -40.5 456.24 -38.7 L 456.24 -3.3 C 456.24 -1.5 457.74 0 459.54 0 L 481.08 0 C 482.4 0 483.48 -1.08 483.48 -2.4 C 483.48 -3.72 482.4 -4.8 481.08 -4.8 Z M 491.34 -6.96 C 495 -2.58 500.1 0.3 505.92 0.3 C 513.78 0.3 519.54 -5.16 519.54 -10.62 C 519.54 -18.18 512.52 -21.84 506.52 -24.06 C 500.82 -26.22 497.16 -27.96 497.16 -31.38 C 497.16 -34.5 499.92 -37.5 505.74 -37.5 C 510.18 -37.5 512.82 -35.76 514.74 -33.12 C 515.16 -32.52 515.88 -32.1 516.66 -32.1 C 517.98 -32.1 519.06 -33.18 519.06 -34.5 C 519.06 -35.04 518.88 -35.52 518.58 -35.94 C 516 -39.42 511.92 -42.3 505.74 -42.3 C 497.46 -42.3 492.36 -36.72 492.36 -31.38 C 492.36 -24.78 498.84 -21.84 504.84 -19.62 C 510.36 -17.46 514.74 -15.18 514.74 -10.62 C 514.74 -7.56 511.5 -4.5 505.92 -4.5 C 501.48 -4.5 497.94 -6.48 495 -10.02 C 494.58 -10.56 493.92 -10.86 493.2 -10.86 C 491.88 -10.86 490.8 -9.78 490.8 -8.46 C 490.8 -7.92 490.98 -7.38 491.34 -6.96 Z M 527.4 -6.96 C 531.06 -2.58 536.16 0.3 541.98 0.3 C 549.84 0.3 555.6 -5.16 555.6 -10.62 C 555.6 -18.18 548.58 -21.84 542.58 -24.06 C 536.88 -26.22 533.22 -27.96 533.22 -31.38 C 533.22 -34.5 535.98 -37.5 541.8 -37.5 C 546.24 -37.5 548.88 -35.76 550.8 -33.12 C 551.22 -32.52 551.94 -32.1 552.72 -32.1 C 554.04 -32.1 555.12 -33.18 555.12 -34.5 C 555.12 -35.04 554.94 -35.52 554.64 -35.94 C 552.06 -39.42 547.98 -42.3 541.8 -42.3 C 533.52 -42.3 528.42 -36.72 528.42 -31.38 C 528.42 -24.78 534.9 -21.84 540.9 -19.62 C 546.42 -17.46 550.8 -15.18 550.8 -10.62 C 550.8 -7.56 547.56 -4.5 541.98 -4.5 C 537.54 -4.5 534 -6.48 531.06 -10.02 C 530.64 -10.56 529.98 -10.86 529.26 -10.86 C 527.94 -10.86 526.86 -9.78 526.86 -8.46 C 526.86 -7.92 527.04 -7.38 527.4 -6.96 Z" stroke-linecap="round" />
</g>
</g>
</g>
</svg>